<?xml version="1.0" standalone="no"?>
<!DOCTYPE svg PUBLIC "-//W3C//DTD SVG 20010904//EN"
 "http://www.w3.org/TR/2001/REC-SVG-20010904/DTD/svg10.dtd">
<svg version="1.0" xmlns="http://www.w3.org/2000/svg"
 width="64.000000pt" height="64.000000pt" viewBox="0 0 64.000000 64.000000"
 preserveAspectRatio="xMidYMid meet">

<g transform="translate(0.000000,64.000000) scale(0.100000,-0.100000)"
fill="#000000" stroke="none">
<path d="M177 626 c-60 -16 -93 -40 -132 -95 -24 -35 -30 -54 -33 -112 -4 -63
-1 -76 28 -136 19 -39 57 -91 95 -129 53 -54 68 -64 96 -64 19 0 45 9 59 20
23 17 23 19 7 26 -10 4 -23 2 -30 -5 -24 -24 -57 -11 -111 45 -114 115 -147
242 -87 337 68 107 231 121 315 28 22 -24 36 -27 36 -8 0 19 -50 64 -90 80
-56 23 -101 27 -153 13z"/>
<path d="M119 521 c-28 -28 -39 -45 -32 -52 6 -6 24 4 52 32 28 28 38 46 32
52 -7 7 -24 -4 -52 -32z"/>
<path d="M169 471 c-38 -39 -39 -87 -3 -130 26 -31 54 -41 54 -20 0 6 -11 20
-25 31 -31 25 -34 77 -5 103 15 14 29 16 60 11 31 -5 40 -3 40 8 0 37 -82 35
-121 -3z"/>
<path d="M360 457 c-51 -27 -90 -90 -90 -145 0 -78 109 -222 168 -222 57 0
162 143 162 220 0 57 -39 120 -90 147 -55 29 -95 29 -150 0z m138 -27 c40 -24
72 -75 72 -114 0 -65 -92 -196 -138 -196 -42 0 -131 131 -132 193 0 45 27 91
68 115 46 27 88 28 130 2z"/>
<path d="M385 365 c-14 -13 -25 -36 -25 -50 0 -33 42 -75 75 -75 33 0 75 42
75 75 0 33 -42 75 -75 75 -14 0 -37 -11 -50 -25z m85 -20 c15 -19 6 -61 -16
-69 -27 -10 -53 3 -60 30 -8 30 11 54 41 54 12 0 28 -7 35 -15z"/>
<path d="M70 391 c0 -32 14 -49 25 -31 9 15 -3 60 -15 60 -6 0 -10 -13 -10
-29z"/>
<path d="M143 18 c5 -18 329 -18 335 0 3 9 -35 12 -168 12 -133 0 -171 -3
-167 -12z"/>
<path d="M563 18 c2 -7 16 -13 32 -13 16 0 30 6 33 13 2 8 -8 12 -33 12 -25 0
-35 -4 -32 -12z"/>
</g>
</svg>
